<mxfile host="app.diagrams.net" agent="Mozilla/5.0 (X11; Linux x86_64) AppleWebKit/537.36 (KHTML, like Gecko) Chrome/135.0.0.0 Safari/537.36" version="26.0.10" pages="2">
  <diagram name="tradOFDM" id="qTU9E4ANHA8HEx_OBcDo">
    <mxGraphModel dx="1264" dy="827" grid="1" gridSize="10" guides="1" tooltips="1" connect="1" arrows="1" fold="1" page="1" pageScale="1" pageWidth="850" pageHeight="1100" math="0" shadow="0">
      <root>
        <mxCell id="0" />
        <mxCell id="1" parent="0" />
        <mxCell id="RBl2X8r-nXLdk-oL6XRW-4" style="edgeStyle=orthogonalEdgeStyle;rounded=0;orthogonalLoop=1;jettySize=auto;html=1;exitX=1;exitY=0.5;exitDx=0;exitDy=0;entryX=0;entryY=0.5;entryDx=0;entryDy=0;" edge="1" parent="1" source="RBl2X8r-nXLdk-oL6XRW-2" target="RBl2X8r-nXLdk-oL6XRW-3">
          <mxGeometry relative="1" as="geometry" />
        </mxCell>
        <mxCell id="RBl2X8r-nXLdk-oL6XRW-2" value="&lt;div&gt;input&lt;/div&gt;Image and&amp;nbsp;&lt;span style=&quot;background-color: transparent; color: light-dark(rgb(0, 0, 0), rgb(255, 255, 255));&quot;&gt;Text&lt;/span&gt;&lt;div&gt;+ Video&lt;/div&gt;" style="shape=parallelogram;html=1;strokeWidth=2;perimeter=parallelogramPerimeter;whiteSpace=wrap;rounded=1;arcSize=12;size=0.23;fontSize=20;" vertex="1" parent="1">
          <mxGeometry x="60" y="185" width="200" height="70" as="geometry" />
        </mxCell>
        <mxCell id="RBl2X8r-nXLdk-oL6XRW-6" style="edgeStyle=orthogonalEdgeStyle;rounded=0;orthogonalLoop=1;jettySize=auto;html=1;exitX=1;exitY=0.5;exitDx=0;exitDy=0;entryX=0;entryY=0.5;entryDx=0;entryDy=0;" edge="1" parent="1" source="RBl2X8r-nXLdk-oL6XRW-3" target="RBl2X8r-nXLdk-oL6XRW-5">
          <mxGeometry relative="1" as="geometry" />
        </mxCell>
        <mxCell id="RBl2X8r-nXLdk-oL6XRW-3" value="mapping" style="rounded=1;whiteSpace=wrap;html=1;absoluteArcSize=1;arcSize=14;strokeWidth=2;fontSize=20;" vertex="1" parent="1">
          <mxGeometry x="290" y="190" width="90" height="60" as="geometry" />
        </mxCell>
        <mxCell id="RBl2X8r-nXLdk-oL6XRW-9" style="edgeStyle=orthogonalEdgeStyle;rounded=0;orthogonalLoop=1;jettySize=auto;html=1;exitX=1;exitY=0.5;exitDx=0;exitDy=0;entryX=0;entryY=0.5;entryDx=0;entryDy=0;" edge="1" parent="1" source="RBl2X8r-nXLdk-oL6XRW-5">
          <mxGeometry relative="1" as="geometry">
            <mxPoint x="490" y="222.5" as="targetPoint" />
          </mxGeometry>
        </mxCell>
        <mxCell id="RBl2X8r-nXLdk-oL6XRW-14" style="edgeStyle=orthogonalEdgeStyle;rounded=0;orthogonalLoop=1;jettySize=auto;html=1;exitX=1;exitY=0.25;exitDx=0;exitDy=0;entryX=0;entryY=0.25;entryDx=0;entryDy=0;" edge="1" parent="1" source="RBl2X8r-nXLdk-oL6XRW-5" target="RBl2X8r-nXLdk-oL6XRW-13">
          <mxGeometry relative="1" as="geometry" />
        </mxCell>
        <mxCell id="RBl2X8r-nXLdk-oL6XRW-19" value="&lt;font style=&quot;font-size: 20px;&quot;&gt;S(2)&lt;/font&gt;" style="edgeLabel;html=1;align=center;verticalAlign=middle;resizable=0;points=[];" vertex="1" connectable="0" parent="RBl2X8r-nXLdk-oL6XRW-14">
          <mxGeometry x="-0.21" relative="1" as="geometry">
            <mxPoint x="-2" as="offset" />
          </mxGeometry>
        </mxCell>
        <mxCell id="RBl2X8r-nXLdk-oL6XRW-15" style="edgeStyle=orthogonalEdgeStyle;rounded=0;orthogonalLoop=1;jettySize=auto;html=1;exitX=1;exitY=0;exitDx=0;exitDy=0;entryX=0;entryY=0;entryDx=0;entryDy=0;" edge="1" parent="1" source="RBl2X8r-nXLdk-oL6XRW-5" target="RBl2X8r-nXLdk-oL6XRW-13">
          <mxGeometry relative="1" as="geometry">
            <Array as="points">
              <mxPoint x="550" y="160" />
              <mxPoint x="550" y="160" />
            </Array>
          </mxGeometry>
        </mxCell>
        <mxCell id="RBl2X8r-nXLdk-oL6XRW-17" value="&lt;font style=&quot;font-size: 20px;&quot;&gt;S(1)&lt;/font&gt;" style="edgeLabel;html=1;align=center;verticalAlign=middle;resizable=0;points=[];" vertex="1" connectable="0" parent="RBl2X8r-nXLdk-oL6XRW-15">
          <mxGeometry x="-0.6" y="1" relative="1" as="geometry">
            <mxPoint x="14" y="1" as="offset" />
          </mxGeometry>
        </mxCell>
        <mxCell id="RBl2X8r-nXLdk-oL6XRW-16" style="edgeStyle=orthogonalEdgeStyle;rounded=0;orthogonalLoop=1;jettySize=auto;html=1;exitX=1;exitY=0.75;exitDx=0;exitDy=0;entryX=0;entryY=0.75;entryDx=0;entryDy=0;" edge="1" parent="1" source="RBl2X8r-nXLdk-oL6XRW-5" target="RBl2X8r-nXLdk-oL6XRW-13">
          <mxGeometry relative="1" as="geometry" />
        </mxCell>
        <mxCell id="RBl2X8r-nXLdk-oL6XRW-20" value="S(n)" style="edgeLabel;html=1;align=center;verticalAlign=middle;resizable=0;points=[];fontSize=20;" vertex="1" connectable="0" parent="RBl2X8r-nXLdk-oL6XRW-16">
          <mxGeometry x="-0.4" relative="1" as="geometry">
            <mxPoint x="6" as="offset" />
          </mxGeometry>
        </mxCell>
        <mxCell id="RBl2X8r-nXLdk-oL6XRW-5" value="S/P" style="rounded=1;whiteSpace=wrap;html=1;absoluteArcSize=1;arcSize=14;strokeWidth=2;fontSize=20;" vertex="1" parent="1">
          <mxGeometry x="430" y="160" width="70" height="120" as="geometry" />
        </mxCell>
        <mxCell id="RBl2X8r-nXLdk-oL6XRW-22" style="edgeStyle=orthogonalEdgeStyle;rounded=0;orthogonalLoop=1;jettySize=auto;html=1;exitX=1;exitY=0.5;exitDx=0;exitDy=0;entryX=0;entryY=0.5;entryDx=0;entryDy=0;" edge="1" parent="1" source="RBl2X8r-nXLdk-oL6XRW-13" target="RBl2X8r-nXLdk-oL6XRW-21">
          <mxGeometry relative="1" as="geometry" />
        </mxCell>
        <mxCell id="RBl2X8r-nXLdk-oL6XRW-13" value="IFFT" style="rounded=1;whiteSpace=wrap;html=1;absoluteArcSize=1;arcSize=14;strokeWidth=2;fontSize=20;" vertex="1" parent="1">
          <mxGeometry x="580" y="160" width="70" height="120" as="geometry" />
        </mxCell>
        <mxCell id="RBl2X8r-nXLdk-oL6XRW-24" style="edgeStyle=orthogonalEdgeStyle;rounded=0;orthogonalLoop=1;jettySize=auto;html=1;exitX=0.5;exitY=1;exitDx=0;exitDy=0;entryX=0.5;entryY=0;entryDx=0;entryDy=0;" edge="1" parent="1" source="RBl2X8r-nXLdk-oL6XRW-21" target="RBl2X8r-nXLdk-oL6XRW-23">
          <mxGeometry relative="1" as="geometry" />
        </mxCell>
        <mxCell id="RBl2X8r-nXLdk-oL6XRW-21" value="DAC" style="rounded=1;whiteSpace=wrap;html=1;absoluteArcSize=1;arcSize=14;strokeWidth=2;fontSize=20;" vertex="1" parent="1">
          <mxGeometry x="700" y="160" width="70" height="120" as="geometry" />
        </mxCell>
        <mxCell id="RBl2X8r-nXLdk-oL6XRW-26" style="edgeStyle=orthogonalEdgeStyle;rounded=0;orthogonalLoop=1;jettySize=auto;html=1;exitX=0.5;exitY=1;exitDx=0;exitDy=0;entryX=0.5;entryY=0;entryDx=0;entryDy=0;" edge="1" parent="1" source="RBl2X8r-nXLdk-oL6XRW-23" target="RBl2X8r-nXLdk-oL6XRW-25">
          <mxGeometry relative="1" as="geometry" />
        </mxCell>
        <mxCell id="RBl2X8r-nXLdk-oL6XRW-23" value="AWGN&lt;div&gt;channel&lt;/div&gt;" style="rounded=1;whiteSpace=wrap;html=1;absoluteArcSize=1;arcSize=14;strokeWidth=2;fontSize=20;" vertex="1" parent="1">
          <mxGeometry x="680" y="325" width="110" height="60" as="geometry" />
        </mxCell>
        <mxCell id="RBl2X8r-nXLdk-oL6XRW-28" style="edgeStyle=orthogonalEdgeStyle;rounded=0;orthogonalLoop=1;jettySize=auto;html=1;exitX=0;exitY=0.5;exitDx=0;exitDy=0;entryX=1;entryY=0.5;entryDx=0;entryDy=0;" edge="1" parent="1" source="RBl2X8r-nXLdk-oL6XRW-25" target="RBl2X8r-nXLdk-oL6XRW-27">
          <mxGeometry relative="1" as="geometry" />
        </mxCell>
        <mxCell id="RBl2X8r-nXLdk-oL6XRW-25" value="ADC" style="rounded=1;whiteSpace=wrap;html=1;absoluteArcSize=1;arcSize=14;strokeWidth=2;fontSize=20;" vertex="1" parent="1">
          <mxGeometry x="700" y="435" width="70" height="120" as="geometry" />
        </mxCell>
        <mxCell id="RBl2X8r-nXLdk-oL6XRW-30" style="edgeStyle=orthogonalEdgeStyle;rounded=0;orthogonalLoop=1;jettySize=auto;html=1;exitX=0;exitY=0;exitDx=0;exitDy=0;entryX=1;entryY=0;entryDx=0;entryDy=0;" edge="1" parent="1" source="RBl2X8r-nXLdk-oL6XRW-27" target="RBl2X8r-nXLdk-oL6XRW-29">
          <mxGeometry relative="1" as="geometry">
            <Array as="points">
              <mxPoint x="550" y="435" />
              <mxPoint x="550" y="435" />
            </Array>
          </mxGeometry>
        </mxCell>
        <mxCell id="RBl2X8r-nXLdk-oL6XRW-33" value="&lt;font&gt;S(1)&lt;/font&gt;" style="edgeLabel;html=1;align=center;verticalAlign=middle;resizable=0;points=[];fontSize=20;" vertex="1" connectable="0" parent="RBl2X8r-nXLdk-oL6XRW-30">
          <mxGeometry x="-0.2501" y="-2" relative="1" as="geometry">
            <mxPoint as="offset" />
          </mxGeometry>
        </mxCell>
        <mxCell id="RBl2X8r-nXLdk-oL6XRW-31" style="edgeStyle=orthogonalEdgeStyle;rounded=0;orthogonalLoop=1;jettySize=auto;html=1;exitX=0;exitY=0.25;exitDx=0;exitDy=0;entryX=1;entryY=0.25;entryDx=0;entryDy=0;" edge="1" parent="1" source="RBl2X8r-nXLdk-oL6XRW-27" target="RBl2X8r-nXLdk-oL6XRW-29">
          <mxGeometry relative="1" as="geometry" />
        </mxCell>
        <mxCell id="RBl2X8r-nXLdk-oL6XRW-34" value="&lt;font style=&quot;font-size: 20px;&quot;&gt;S(2)&lt;/font&gt;" style="edgeLabel;html=1;align=center;verticalAlign=middle;resizable=0;points=[];" vertex="1" connectable="0" parent="RBl2X8r-nXLdk-oL6XRW-31">
          <mxGeometry x="-0.2214" y="-2" relative="1" as="geometry">
            <mxPoint x="1" as="offset" />
          </mxGeometry>
        </mxCell>
        <mxCell id="RBl2X8r-nXLdk-oL6XRW-32" style="edgeStyle=orthogonalEdgeStyle;rounded=0;orthogonalLoop=1;jettySize=auto;html=1;exitX=0;exitY=0.75;exitDx=0;exitDy=0;entryX=1;entryY=0.75;entryDx=0;entryDy=0;" edge="1" parent="1" source="RBl2X8r-nXLdk-oL6XRW-27" target="RBl2X8r-nXLdk-oL6XRW-29">
          <mxGeometry relative="1" as="geometry" />
        </mxCell>
        <mxCell id="RBl2X8r-nXLdk-oL6XRW-37" value="&lt;font style=&quot;font-size: 20px;&quot;&gt;S(n)&lt;/font&gt;" style="edgeLabel;html=1;align=center;verticalAlign=middle;resizable=0;points=[];" vertex="1" connectable="0" parent="RBl2X8r-nXLdk-oL6XRW-32">
          <mxGeometry x="-0.2929" y="-1" relative="1" as="geometry">
            <mxPoint x="-2" as="offset" />
          </mxGeometry>
        </mxCell>
        <mxCell id="RBl2X8r-nXLdk-oL6XRW-27" value="FFT" style="rounded=1;whiteSpace=wrap;html=1;absoluteArcSize=1;arcSize=14;strokeWidth=2;fontSize=20;" vertex="1" parent="1">
          <mxGeometry x="580" y="435" width="70" height="120" as="geometry" />
        </mxCell>
        <mxCell id="RBl2X8r-nXLdk-oL6XRW-40" style="edgeStyle=orthogonalEdgeStyle;rounded=0;orthogonalLoop=1;jettySize=auto;html=1;exitX=0;exitY=0.5;exitDx=0;exitDy=0;entryX=1;entryY=0.5;entryDx=0;entryDy=0;" edge="1" parent="1" source="RBl2X8r-nXLdk-oL6XRW-29" target="RBl2X8r-nXLdk-oL6XRW-39">
          <mxGeometry relative="1" as="geometry" />
        </mxCell>
        <mxCell id="RBl2X8r-nXLdk-oL6XRW-29" value="S/P" style="rounded=1;whiteSpace=wrap;html=1;absoluteArcSize=1;arcSize=14;strokeWidth=2;fontSize=20;" vertex="1" parent="1">
          <mxGeometry x="430" y="435" width="70" height="120" as="geometry" />
        </mxCell>
        <mxCell id="RBl2X8r-nXLdk-oL6XRW-41" style="edgeStyle=orthogonalEdgeStyle;rounded=0;orthogonalLoop=1;jettySize=auto;html=1;exitX=0;exitY=0.5;exitDx=0;exitDy=0;entryX=1;entryY=0.5;entryDx=0;entryDy=0;" edge="1" parent="1" source="RBl2X8r-nXLdk-oL6XRW-39" target="RBl2X8r-nXLdk-oL6XRW-42">
          <mxGeometry relative="1" as="geometry">
            <mxPoint x="220" y="495" as="targetPoint" />
          </mxGeometry>
        </mxCell>
        <mxCell id="RBl2X8r-nXLdk-oL6XRW-39" value="de- mapping" style="rounded=1;whiteSpace=wrap;html=1;absoluteArcSize=1;arcSize=14;strokeWidth=2;fontSize=20;" vertex="1" parent="1">
          <mxGeometry x="260" y="465" width="120" height="60" as="geometry" />
        </mxCell>
        <mxCell id="RBl2X8r-nXLdk-oL6XRW-42" value="&lt;div&gt;output&lt;/div&gt;Image and&amp;nbsp;&lt;span style=&quot;background-color: transparent; color: light-dark(rgb(0, 0, 0), rgb(255, 255, 255));&quot;&gt;Text&lt;/span&gt;&lt;div&gt;+ Video&lt;/div&gt;" style="shape=parallelogram;html=1;strokeWidth=2;perimeter=parallelogramPerimeter;whiteSpace=wrap;rounded=1;arcSize=12;size=0.23;fontSize=20;" vertex="1" parent="1">
          <mxGeometry x="40" y="460" width="200" height="70" as="geometry" />
        </mxCell>
        <mxCell id="RBl2X8r-nXLdk-oL6XRW-43" value="Traditional OFDM process" style="text;html=1;align=center;verticalAlign=middle;whiteSpace=wrap;rounded=0;fontSize=24;fontStyle=1" vertex="1" parent="1">
          <mxGeometry x="40" y="40" width="420" height="30" as="geometry" />
        </mxCell>
      </root>
    </mxGraphModel>
  </diagram>
  <diagram id="vSHGNrdV5dEN2Mvy2Sy6" name="mimoOFDM">
    <mxGraphModel dx="1040" dy="681" grid="1" gridSize="10" guides="1" tooltips="1" connect="1" arrows="1" fold="1" page="1" pageScale="1" pageWidth="850" pageHeight="1100" math="0" shadow="0">
      <root>
        <mxCell id="0" />
        <mxCell id="1" parent="0" />
        <mxCell id="o23expfCvC5PyByfokQx-34" style="edgeStyle=orthogonalEdgeStyle;rounded=0;orthogonalLoop=1;jettySize=auto;html=1;exitX=1;exitY=0.5;exitDx=0;exitDy=0;entryX=0;entryY=0.5;entryDx=0;entryDy=0;fontSize=18;" edge="1" parent="1" source="o23expfCvC5PyByfokQx-2" target="o23expfCvC5PyByfokQx-4">
          <mxGeometry relative="1" as="geometry" />
        </mxCell>
        <mxCell id="o23expfCvC5PyByfokQx-2" value="&lt;div&gt;input&lt;/div&gt;Image and&amp;nbsp;&lt;span style=&quot;background-color: transparent; color: light-dark(rgb(0, 0, 0), rgb(255, 255, 255));&quot;&gt;Text&lt;/span&gt;&lt;div&gt;+ Video&lt;/div&gt;" style="shape=parallelogram;html=1;strokeWidth=2;perimeter=parallelogramPerimeter;whiteSpace=wrap;rounded=1;arcSize=12;size=0.23;fontSize=18;" vertex="1" parent="1">
          <mxGeometry x="60" y="185" width="180" height="70" as="geometry" />
        </mxCell>
        <mxCell id="o23expfCvC5PyByfokQx-35" style="edgeStyle=orthogonalEdgeStyle;rounded=0;orthogonalLoop=1;jettySize=auto;html=1;exitX=1;exitY=0.5;exitDx=0;exitDy=0;entryX=0;entryY=0.5;entryDx=0;entryDy=0;fontSize=18;" edge="1" parent="1" source="o23expfCvC5PyByfokQx-4" target="o23expfCvC5PyByfokQx-33">
          <mxGeometry relative="1" as="geometry" />
        </mxCell>
        <mxCell id="o23expfCvC5PyByfokQx-4" value="&lt;div&gt;FEC&lt;/div&gt;&lt;div&gt;Reed Solomon&lt;/div&gt;&lt;div&gt;code&lt;/div&gt;" style="rounded=1;whiteSpace=wrap;html=1;absoluteArcSize=1;arcSize=14;strokeWidth=2;fontSize=18;" vertex="1" parent="1">
          <mxGeometry x="260" y="180" width="130" height="80" as="geometry" />
        </mxCell>
        <mxCell id="o23expfCvC5PyByfokQx-6" style="edgeStyle=orthogonalEdgeStyle;rounded=0;orthogonalLoop=1;jettySize=auto;html=1;exitX=1;exitY=0.25;exitDx=0;exitDy=0;entryX=0;entryY=0.25;entryDx=0;entryDy=0;fontSize=18;" edge="1" parent="1" source="o23expfCvC5PyByfokQx-12" target="o23expfCvC5PyByfokQx-14">
          <mxGeometry relative="1" as="geometry" />
        </mxCell>
        <mxCell id="o23expfCvC5PyByfokQx-10" style="edgeStyle=orthogonalEdgeStyle;rounded=0;orthogonalLoop=1;jettySize=auto;html=1;exitX=1;exitY=0.75;exitDx=0;exitDy=0;entryX=0;entryY=0.75;entryDx=0;entryDy=0;fontSize=18;" edge="1" parent="1" source="o23expfCvC5PyByfokQx-12" target="o23expfCvC5PyByfokQx-14">
          <mxGeometry relative="1" as="geometry" />
        </mxCell>
        <mxCell id="o23expfCvC5PyByfokQx-56" style="edgeStyle=orthogonalEdgeStyle;rounded=0;orthogonalLoop=1;jettySize=auto;html=1;exitX=1;exitY=0;exitDx=0;exitDy=0;entryX=0;entryY=0;entryDx=0;entryDy=0;fontSize=18;" edge="1" parent="1" source="o23expfCvC5PyByfokQx-12" target="o23expfCvC5PyByfokQx-14">
          <mxGeometry relative="1" as="geometry">
            <Array as="points">
              <mxPoint x="150" y="320" />
              <mxPoint x="150" y="320" />
            </Array>
          </mxGeometry>
        </mxCell>
        <mxCell id="o23expfCvC5PyByfokQx-12" value="S/P" style="rounded=1;whiteSpace=wrap;html=1;absoluteArcSize=1;arcSize=14;strokeWidth=2;fontSize=18;" vertex="1" parent="1">
          <mxGeometry x="60" y="320" width="60" height="120" as="geometry" />
        </mxCell>
        <mxCell id="o23expfCvC5PyByfokQx-14" value="IFFT" style="rounded=1;whiteSpace=wrap;html=1;absoluteArcSize=1;arcSize=14;strokeWidth=2;fontSize=18;" vertex="1" parent="1">
          <mxGeometry x="170" y="320" width="60" height="120" as="geometry" />
        </mxCell>
        <mxCell id="o23expfCvC5PyByfokQx-59" style="edgeStyle=orthogonalEdgeStyle;rounded=0;orthogonalLoop=1;jettySize=auto;html=1;exitX=1;exitY=0.5;exitDx=0;exitDy=0;entryX=0;entryY=0.5;entryDx=0;entryDy=0;" edge="1" parent="1" source="o23expfCvC5PyByfokQx-18" target="o23expfCvC5PyByfokQx-20">
          <mxGeometry relative="1" as="geometry" />
        </mxCell>
        <mxCell id="o23expfCvC5PyByfokQx-18" value="AWGN&lt;div&gt;channel&lt;/div&gt;" style="rounded=1;whiteSpace=wrap;html=1;absoluteArcSize=1;arcSize=14;strokeWidth=2;fontSize=18;" vertex="1" parent="1">
          <mxGeometry x="450" y="350" width="110" height="60" as="geometry" />
        </mxCell>
        <mxCell id="o23expfCvC5PyByfokQx-60" style="edgeStyle=orthogonalEdgeStyle;rounded=0;orthogonalLoop=1;jettySize=auto;html=1;exitX=1;exitY=0;exitDx=0;exitDy=0;entryX=0;entryY=0;entryDx=0;entryDy=0;" edge="1" parent="1" source="o23expfCvC5PyByfokQx-20" target="o23expfCvC5PyByfokQx-27">
          <mxGeometry relative="1" as="geometry">
            <Array as="points">
              <mxPoint x="150" y="510" />
              <mxPoint x="150" y="510" />
            </Array>
          </mxGeometry>
        </mxCell>
        <mxCell id="o23expfCvC5PyByfokQx-61" style="edgeStyle=orthogonalEdgeStyle;rounded=0;orthogonalLoop=1;jettySize=auto;html=1;exitX=1;exitY=0.25;exitDx=0;exitDy=0;entryX=0;entryY=0.25;entryDx=0;entryDy=0;" edge="1" parent="1" source="o23expfCvC5PyByfokQx-20" target="o23expfCvC5PyByfokQx-27">
          <mxGeometry relative="1" as="geometry" />
        </mxCell>
        <mxCell id="o23expfCvC5PyByfokQx-62" style="edgeStyle=orthogonalEdgeStyle;rounded=0;orthogonalLoop=1;jettySize=auto;html=1;exitX=1;exitY=0.75;exitDx=0;exitDy=0;entryX=0;entryY=0.75;entryDx=0;entryDy=0;" edge="1" parent="1" source="o23expfCvC5PyByfokQx-20" target="o23expfCvC5PyByfokQx-27">
          <mxGeometry relative="1" as="geometry" />
        </mxCell>
        <mxCell id="o23expfCvC5PyByfokQx-20" value="P/S" style="rounded=1;whiteSpace=wrap;html=1;absoluteArcSize=1;arcSize=14;strokeWidth=2;fontSize=18;" vertex="1" parent="1">
          <mxGeometry x="55" y="510" width="70" height="120" as="geometry" />
        </mxCell>
        <mxCell id="o23expfCvC5PyByfokQx-63" style="edgeStyle=orthogonalEdgeStyle;rounded=0;orthogonalLoop=1;jettySize=auto;html=1;exitX=1;exitY=0.5;exitDx=0;exitDy=0;entryX=0;entryY=0.5;entryDx=0;entryDy=0;" edge="1" parent="1" source="o23expfCvC5PyByfokQx-27" target="o23expfCvC5PyByfokQx-29">
          <mxGeometry relative="1" as="geometry" />
        </mxCell>
        <mxCell id="o23expfCvC5PyByfokQx-27" value="FFT" style="rounded=1;whiteSpace=wrap;html=1;absoluteArcSize=1;arcSize=14;strokeWidth=2;fontSize=18;" vertex="1" parent="1">
          <mxGeometry x="165" y="510" width="70" height="120" as="geometry" />
        </mxCell>
        <mxCell id="o23expfCvC5PyByfokQx-64" style="edgeStyle=orthogonalEdgeStyle;rounded=0;orthogonalLoop=1;jettySize=auto;html=1;exitX=1;exitY=0.5;exitDx=0;exitDy=0;entryX=0;entryY=0.5;entryDx=0;entryDy=0;" edge="1" parent="1" source="o23expfCvC5PyByfokQx-29" target="o23expfCvC5PyByfokQx-31">
          <mxGeometry relative="1" as="geometry" />
        </mxCell>
        <mxCell id="o23expfCvC5PyByfokQx-29" value="S/P" style="rounded=1;whiteSpace=wrap;html=1;absoluteArcSize=1;arcSize=14;strokeWidth=2;fontSize=18;" vertex="1" parent="1">
          <mxGeometry x="275" y="510" width="70" height="120" as="geometry" />
        </mxCell>
        <mxCell id="o23expfCvC5PyByfokQx-66" style="edgeStyle=orthogonalEdgeStyle;rounded=0;orthogonalLoop=1;jettySize=auto;html=1;exitX=1;exitY=0.5;exitDx=0;exitDy=0;entryX=0;entryY=0.5;entryDx=0;entryDy=0;" edge="1" parent="1" source="o23expfCvC5PyByfokQx-31" target="o23expfCvC5PyByfokQx-65">
          <mxGeometry relative="1" as="geometry" />
        </mxCell>
        <mxCell id="o23expfCvC5PyByfokQx-31" value="demodulation" style="rounded=1;whiteSpace=wrap;html=1;absoluteArcSize=1;arcSize=14;strokeWidth=2;fontSize=18;" vertex="1" parent="1">
          <mxGeometry x="380" y="540" width="140" height="60" as="geometry" />
        </mxCell>
        <mxCell id="o23expfCvC5PyByfokQx-32" value="&lt;div&gt;output&lt;/div&gt;" style="shape=parallelogram;html=1;strokeWidth=2;perimeter=parallelogramPerimeter;whiteSpace=wrap;rounded=1;arcSize=12;size=0.23;fontSize=18;" vertex="1" parent="1">
          <mxGeometry x="690" y="535" width="130" height="70" as="geometry" />
        </mxCell>
        <mxCell id="o23expfCvC5PyByfokQx-36" style="edgeStyle=orthogonalEdgeStyle;rounded=0;orthogonalLoop=1;jettySize=auto;html=1;exitX=1;exitY=0.5;exitDx=0;exitDy=0;entryX=0;entryY=0.5;entryDx=0;entryDy=0;fontSize=18;" edge="1" parent="1" source="o23expfCvC5PyByfokQx-33" target="o23expfCvC5PyByfokQx-12">
          <mxGeometry relative="1" as="geometry" />
        </mxCell>
        <mxCell id="o23expfCvC5PyByfokQx-33" value="&lt;div&gt;modulations&lt;/div&gt;&lt;div&gt;BPSK, 16-PSK,&lt;/div&gt;&lt;div&gt;16-QAM, 64-QAM&lt;/div&gt;" style="rounded=1;whiteSpace=wrap;html=1;absoluteArcSize=1;arcSize=14;strokeWidth=2;fontSize=18;" vertex="1" parent="1">
          <mxGeometry x="425" y="180" width="175" height="80" as="geometry" />
        </mxCell>
        <mxCell id="o23expfCvC5PyByfokQx-52" style="edgeStyle=orthogonalEdgeStyle;rounded=0;orthogonalLoop=1;jettySize=auto;html=1;exitX=1;exitY=0.25;exitDx=0;exitDy=0;entryX=0;entryY=0.25;entryDx=0;entryDy=0;fontSize=18;" edge="1" parent="1" target="o23expfCvC5PyByfokQx-55" source="o23expfCvC5PyByfokQx-14">
          <mxGeometry relative="1" as="geometry">
            <mxPoint x="250" y="350" as="sourcePoint" />
          </mxGeometry>
        </mxCell>
        <mxCell id="o23expfCvC5PyByfokQx-53" style="edgeStyle=orthogonalEdgeStyle;rounded=0;orthogonalLoop=1;jettySize=auto;html=1;exitX=1;exitY=0.75;exitDx=0;exitDy=0;entryX=0;entryY=0.75;entryDx=0;entryDy=0;fontSize=18;" edge="1" parent="1" target="o23expfCvC5PyByfokQx-55" source="o23expfCvC5PyByfokQx-14">
          <mxGeometry relative="1" as="geometry">
            <mxPoint x="250" y="410" as="sourcePoint" />
          </mxGeometry>
        </mxCell>
        <mxCell id="o23expfCvC5PyByfokQx-54" style="edgeStyle=orthogonalEdgeStyle;rounded=0;orthogonalLoop=1;jettySize=auto;html=1;exitX=1;exitY=0;exitDx=0;exitDy=0;entryX=0;entryY=0;entryDx=0;entryDy=0;fontSize=18;" edge="1" parent="1" target="o23expfCvC5PyByfokQx-55" source="o23expfCvC5PyByfokQx-14">
          <mxGeometry relative="1" as="geometry">
            <mxPoint x="250" y="320" as="sourcePoint" />
            <Array as="points">
              <mxPoint x="280" y="320" />
              <mxPoint x="280" y="320" />
            </Array>
          </mxGeometry>
        </mxCell>
        <mxCell id="o23expfCvC5PyByfokQx-57" style="edgeStyle=orthogonalEdgeStyle;rounded=0;orthogonalLoop=1;jettySize=auto;html=1;exitX=1;exitY=0.5;exitDx=0;exitDy=0;entryX=0;entryY=0.5;entryDx=0;entryDy=0;fontSize=18;" edge="1" parent="1" source="o23expfCvC5PyByfokQx-55" target="o23expfCvC5PyByfokQx-18">
          <mxGeometry relative="1" as="geometry" />
        </mxCell>
        <mxCell id="o23expfCvC5PyByfokQx-55" value="P/S" style="rounded=1;whiteSpace=wrap;html=1;absoluteArcSize=1;arcSize=14;strokeWidth=2;fontSize=18;" vertex="1" parent="1">
          <mxGeometry x="280" y="320" width="60" height="120" as="geometry" />
        </mxCell>
        <mxCell id="o23expfCvC5PyByfokQx-67" style="edgeStyle=orthogonalEdgeStyle;rounded=0;orthogonalLoop=1;jettySize=auto;html=1;exitX=1;exitY=0.5;exitDx=0;exitDy=0;entryX=0;entryY=0.5;entryDx=0;entryDy=0;" edge="1" parent="1" source="o23expfCvC5PyByfokQx-65" target="o23expfCvC5PyByfokQx-32">
          <mxGeometry relative="1" as="geometry" />
        </mxCell>
        <mxCell id="o23expfCvC5PyByfokQx-65" value="RS decode" style="rounded=1;whiteSpace=wrap;html=1;absoluteArcSize=1;arcSize=14;strokeWidth=2;fontSize=18;" vertex="1" parent="1">
          <mxGeometry x="560" y="540" width="110" height="60" as="geometry" />
        </mxCell>
      </root>
    </mxGraphModel>
  </diagram>
</mxfile>
